<svg xmlns="http://www.w3.org/2000/svg">
  <defs>
    <symbol id="icon-train" viewBox="0 0 52 65">
      <g>
        <g>
          <g>
            <path d="M25.9992275,50c-1.3134766,0-2.2988281-1.2871094-3.1953125-4.1738281     c-0.5800781-1.8100586-1.1035156-4.2685547-1.5537109-7.2993164c-0.4589844-3.0356445-0.8154297-6.527832-1.0283203-10.097168     C20.0744228,25.8354492,19.9992275,23.3369141,19.9992275,21c0-1.8305664,0.0234375-3.3955078,0.0712891-4.7841797     C20.3546963,7.6831055,21.4718838,2,25.9992275,2c5.0185547,0,6,6.9667969,6,19     c0,5.8085938-0.4599609,12.1977539-1.2607422,17.5283203c-0.4443359,2.9907227-0.9638672,5.4477539-1.5449219,7.3007813     C28.5949306,47.7685547,27.6896572,50,25.9992275,50z M25.9992275,4c-1.7412109,0-3.5693359,1.4594727-3.9306641,12.2832031     C22.0216885,17.6499023,21.9992275,19.1923828,21.9992275,21c0,2.2993164,0.0732422,4.7597656,0.21875,7.3134766     c0.2099609,3.5068359,0.5595703,6.9375,1.0097656,9.9169922c0.4345703,2.9262695,0.9335938,5.2783203,1.4833984,6.9941406     c0.6152344,1.9819336,1.1103516,2.5732422,1.2890625,2.7333984c0.1796875-0.1591797,0.6738281-0.7470703,1.2841797-2.7231445     c0.5507813-1.7578125,1.046875-4.1123047,1.4755859-7.0019531C29.5480556,32.9941406,29.9992275,26.7138672,29.9992275,21     C29.9992275,8.925293,28.8400478,4,25.9992275,4z"/></g></g><g><g><path d="M5.7589927,38c-1.1933594,0-2.3281248-0.5795898-3.0371091-1.550293     c-1.1337891-1.5576172-0.9169922-3.7104492,0.5029297-5.0083008l18.9267578-17.5581055l-0.0830078,2.4008789     C22.0216885,17.6499023,21.9992275,19.1923828,21.9992275,21c0,2.3549805,0.0751953,3.784668,0.21875,6.3134766     l0.0332031,0.5756836L7.677938,37.4658203C7.0636802,37.8251953,6.4152427,38,5.7589927,38z M20.0148525,18.5917969     L4.5793052,32.9130859c-0.6728513,0.6147461-0.7744138,1.6264648-0.2412109,2.3583984     c0.5166016,0.7070313,1.5351563,0.9296875,2.2880859,0.4941406l13.5625-8.9145508     C20.0675869,24.6850586,19.9992275,23.2138672,19.9992275,21C19.9992275,20.1420898,20.0041103,19.3422852,20.0148525,18.5917969     z"/></g></g><g><g><path d="M46.23946,38c-0.65625,0-1.3046875-0.1748047-1.8730469-0.5058594L29.748251,27.8891602l0.0332031-0.5756836     C29.9240322,24.7783203,29.9992275,23.3457031,29.9992275,21c0-1.8266602-0.0224609-3.3691406-0.0683594-4.7158203     l-0.0830078-2.4013672l18.9316387,17.5634766c1.4150391,1.2924805,1.6318359,3.4448242,0.4990234,5.0014648l-0.0009766,0.0019531     C48.5685616,37.4204102,47.4328194,38,46.23946,38z M31.810751,26.8510742l13.60742,8.9433594     C45.6398506,35.9208984,45.9318428,36,46.23946,36c0.5576172,0,1.0888672-0.2729492,1.4228516-0.7294922     c0.53125-0.7324219,0.4296875-1.7436523-0.2373047-2.3525391L31.9845791,18.5913086     C31.9943447,19.3383789,31.9992275,20.1381836,31.9992275,21C31.9992275,23.2055664,31.9318447,24.6787109,31.810751,26.8510742z     "/></g></g><g><g><path d="M18.3293056,48c-1.3515625,0-2.5615234-0.8110352-3.0839844-2.0664063     c-0.5400391-1.3217773-0.1796875-2.840332,0.8935547-3.784668c1.7246094-1.4760742,4.0283203-3.5048828,4.8789063-4.3916016     c0.4726563-0.4750977,1.1806641-0.5668945,1.734375-0.2358398l0.4072266,0.2431641l0.0693359,0.4682617     c0.4335938,2.9238281,0.9326172,5.2758789,1.4824219,6.9916992l0.3144531,0.9804688L19.25704,47.8706055     C18.9318447,47.9589844,18.6330166,48,18.3293056,48z M21.4953213,40.0800781     c-1.4316406,1.3344727-3.5458984,3.1513672-4.0458984,3.5795898c-0.4238281,0.3725586-0.5703125,0.9838867-0.3544922,1.5117188     c0.2568359,0.6176758,0.8886719,0.9726563,1.6220703,0.7734375l3.796875-1.0961914     C22.1466885,43.5205078,21.8058681,41.9248047,21.4953213,40.0800781z"/></g></g><g><g><path d="M33.6593819,48c-0.3037109,0-0.6025391-0.0410156-0.9130859-0.1254883l-5.7665997-1.668457l0.3056641-0.9755859     c0.5498047-1.753418,1.0458984-4.1079102,1.4746094-6.9975586l0.0693359-0.4682617l0.4072266-0.2431641     c0.5537109-0.3320313,1.2617188-0.2382813,1.7207031,0.222168c1.0390625,1.0712891,4.0019512,3.637207,4.8847637,4.3984375     c1.0830078,0.9404297,1.4443359,2.4604492,0.9033203,3.7861328l-0.0019531,0.0053711     C36.2209053,47.1889648,35.0109444,48,33.6593819,48z M29.4806728,44.8476563l3.8066387,1.1015625     c0.6503906,0.1757813,1.3466797-0.1572266,1.6074219-0.7807617c0.2158203-0.5307617,0.0712891-1.1386719-0.3603516-1.5136719     c-0.8857422-0.7631836-2.748045-2.3789063-4.0400372-3.5795898     C30.185751,41.9067383,29.8468838,43.5039063,29.4806728,44.8476563z"/></g></g><g><g><path d="M44.9992256,29h-1.8037109l-4.1962891-3.9047852V20c0-1.6542969,1.3457031-3,3-3s3,1.3457031,3,3V29z      M40.9992256,24.2241211l2,1.8608398V20c0-0.5512695-0.4482422-1-1-1s-1,0.4487305-1,1V24.2241211z"/></g></g><g><g><path d="M8.8029385,29H6.999227v-9c0-1.6542969,1.3457036-3,3.0000005-3s3,1.3457031,3,3v5.0952148L8.8029385,29z M9.9992275,19     c-0.5517578,0-1,0.4487305-1,1v6.0849609l2-1.8608398V20C10.9992275,19.4487305,10.5509853,19,9.9992275,19z"/>
            <!-- Additional paths omitted for brevity -->
          </g>
        </g>
      </g>
    </symbol>
    <!-- Additional icons can be added here -->
  </defs>
</svg>
